<mxfile host="app.diagrams.net" agent="Mozilla/5.0 (Windows NT 10.0; Win64; x64) AppleWebKit/537.36 (KHTML, like Gecko) Chrome/135.0.0.0 Safari/537.36" version="26.2.10">
  <diagram id="mEkvTyThOu5J17mBWjjY" name="Page-1">
    <mxGraphModel dx="874" dy="465" grid="1" gridSize="10" guides="1" tooltips="1" connect="1" arrows="1" fold="1" page="1" pageScale="1" pageWidth="850" pageHeight="1100" math="0" shadow="0">
      <root>
        <mxCell id="0" />
        <mxCell id="1" parent="0" />
        <mxCell id="o4Xj9aXB-t-w6TlgrTAv-1" value="&lt;font style=&quot;font-size: 18px;&quot;&gt;Admin&lt;/font&gt;" style="shape=umlActor;verticalLabelPosition=bottom;verticalAlign=top;html=1;" vertex="1" parent="1">
          <mxGeometry x="80" y="410" width="60" height="120" as="geometry" />
        </mxCell>
        <mxCell id="o4Xj9aXB-t-w6TlgrTAv-4" value="" style="rounded=0;whiteSpace=wrap;html=1;direction=south;" vertex="1" parent="1">
          <mxGeometry x="210" y="130" width="310" height="690" as="geometry" />
        </mxCell>
        <mxCell id="o4Xj9aXB-t-w6TlgrTAv-6" value="&lt;font style=&quot;font-size: 16px;&quot;&gt;Stock Entry&lt;/font&gt;" style="ellipse;whiteSpace=wrap;html=1;" vertex="1" parent="1">
          <mxGeometry x="300" y="180" width="135" height="50" as="geometry" />
        </mxCell>
        <mxCell id="o4Xj9aXB-t-w6TlgrTAv-7" value="&lt;font style=&quot;font-size: 16px;&quot;&gt;register attendance&lt;/font&gt;" style="ellipse;whiteSpace=wrap;html=1;" vertex="1" parent="1">
          <mxGeometry x="270" y="260" width="190" height="50" as="geometry" />
        </mxCell>
        <mxCell id="o4Xj9aXB-t-w6TlgrTAv-8" value="&lt;font style=&quot;font-size: 16px;&quot;&gt;Generate Payroll&lt;/font&gt;" style="ellipse;whiteSpace=wrap;html=1;" vertex="1" parent="1">
          <mxGeometry x="285" y="345" width="160" height="50" as="geometry" />
        </mxCell>
        <mxCell id="o4Xj9aXB-t-w6TlgrTAv-9" value="&lt;font style=&quot;font-size: 16px;&quot;&gt;add side and guage&lt;/font&gt;" style="ellipse;whiteSpace=wrap;html=1;" vertex="1" parent="1">
          <mxGeometry x="280" y="420" width="170" height="50" as="geometry" />
        </mxCell>
        <mxCell id="o4Xj9aXB-t-w6TlgrTAv-10" value="&lt;font style=&quot;font-size: 16px;&quot;&gt;receipt entry&lt;/font&gt;" style="ellipse;whiteSpace=wrap;html=1;" vertex="1" parent="1">
          <mxGeometry x="297.5" y="500" width="135" height="50" as="geometry" />
        </mxCell>
        <mxCell id="o4Xj9aXB-t-w6TlgrTAv-11" value="&lt;font style=&quot;font-size: 16px;&quot;&gt;employee prepayment&lt;/font&gt;" style="ellipse;whiteSpace=wrap;html=1;" vertex="1" parent="1">
          <mxGeometry x="265" y="580" width="200" height="50" as="geometry" />
        </mxCell>
        <mxCell id="o4Xj9aXB-t-w6TlgrTAv-12" value="&lt;font style=&quot;font-size: 16px;&quot;&gt;add employee&lt;/font&gt;" style="ellipse;whiteSpace=wrap;html=1;" vertex="1" parent="1">
          <mxGeometry x="297.5" y="650" width="135" height="50" as="geometry" />
        </mxCell>
        <mxCell id="o4Xj9aXB-t-w6TlgrTAv-13" value="&lt;font style=&quot;font-size: 16px;&quot;&gt;Generate Reports&lt;/font&gt;" style="ellipse;whiteSpace=wrap;html=1;" vertex="1" parent="1">
          <mxGeometry x="285" y="730" width="160" height="50" as="geometry" />
        </mxCell>
        <mxCell id="o4Xj9aXB-t-w6TlgrTAv-14" value="" style="endArrow=none;html=1;rounded=0;entryX=0;entryY=0.5;entryDx=0;entryDy=0;" edge="1" parent="1" target="o4Xj9aXB-t-w6TlgrTAv-6">
          <mxGeometry width="50" height="50" relative="1" as="geometry">
            <mxPoint x="150" y="470" as="sourcePoint" />
            <mxPoint x="430" y="370" as="targetPoint" />
          </mxGeometry>
        </mxCell>
        <mxCell id="o4Xj9aXB-t-w6TlgrTAv-15" value="" style="endArrow=none;html=1;rounded=0;entryX=0.074;entryY=0.78;entryDx=0;entryDy=0;entryPerimeter=0;" edge="1" parent="1" target="o4Xj9aXB-t-w6TlgrTAv-7">
          <mxGeometry width="50" height="50" relative="1" as="geometry">
            <mxPoint x="150" y="470" as="sourcePoint" />
            <mxPoint x="430" y="370" as="targetPoint" />
          </mxGeometry>
        </mxCell>
        <mxCell id="o4Xj9aXB-t-w6TlgrTAv-16" value="" style="endArrow=none;html=1;rounded=0;entryX=0;entryY=0.5;entryDx=0;entryDy=0;" edge="1" parent="1" target="o4Xj9aXB-t-w6TlgrTAv-8">
          <mxGeometry width="50" height="50" relative="1" as="geometry">
            <mxPoint x="150" y="470" as="sourcePoint" />
            <mxPoint x="304" y="329" as="targetPoint" />
          </mxGeometry>
        </mxCell>
        <mxCell id="o4Xj9aXB-t-w6TlgrTAv-17" value="" style="endArrow=none;html=1;rounded=0;entryX=0;entryY=0.5;entryDx=0;entryDy=0;" edge="1" parent="1" target="o4Xj9aXB-t-w6TlgrTAv-9">
          <mxGeometry width="50" height="50" relative="1" as="geometry">
            <mxPoint x="150" y="470" as="sourcePoint" />
            <mxPoint x="304" y="369" as="targetPoint" />
          </mxGeometry>
        </mxCell>
        <mxCell id="o4Xj9aXB-t-w6TlgrTAv-18" value="" style="endArrow=none;html=1;rounded=0;entryX=0;entryY=0.5;entryDx=0;entryDy=0;" edge="1" parent="1" target="o4Xj9aXB-t-w6TlgrTAv-10">
          <mxGeometry width="50" height="50" relative="1" as="geometry">
            <mxPoint x="150" y="470" as="sourcePoint" />
            <mxPoint x="324" y="409" as="targetPoint" />
          </mxGeometry>
        </mxCell>
        <mxCell id="o4Xj9aXB-t-w6TlgrTAv-19" value="" style="endArrow=none;html=1;rounded=0;entryX=0;entryY=0.5;entryDx=0;entryDy=0;" edge="1" parent="1" target="o4Xj9aXB-t-w6TlgrTAv-11">
          <mxGeometry width="50" height="50" relative="1" as="geometry">
            <mxPoint x="150" y="470" as="sourcePoint" />
            <mxPoint x="314" y="409" as="targetPoint" />
          </mxGeometry>
        </mxCell>
        <mxCell id="o4Xj9aXB-t-w6TlgrTAv-20" value="" style="endArrow=none;html=1;rounded=0;entryX=0;entryY=0.5;entryDx=0;entryDy=0;" edge="1" parent="1" target="o4Xj9aXB-t-w6TlgrTAv-12">
          <mxGeometry width="50" height="50" relative="1" as="geometry">
            <mxPoint x="150" y="470" as="sourcePoint" />
            <mxPoint x="304" y="569" as="targetPoint" />
          </mxGeometry>
        </mxCell>
        <mxCell id="o4Xj9aXB-t-w6TlgrTAv-21" value="" style="endArrow=none;html=1;rounded=0;entryX=0;entryY=0.5;entryDx=0;entryDy=0;" edge="1" parent="1" target="o4Xj9aXB-t-w6TlgrTAv-13">
          <mxGeometry width="50" height="50" relative="1" as="geometry">
            <mxPoint x="150" y="470" as="sourcePoint" />
            <mxPoint x="254" y="629" as="targetPoint" />
          </mxGeometry>
        </mxCell>
      </root>
    </mxGraphModel>
  </diagram>
</mxfile>
